STARTFONT 2.1
FONT -FontForge-Blocktopia-Medium-R-Normal--16-150-75-75-P-77-ISO10646-1
SIZE 15 75 75
FONTBOUNDINGBOX 14 16 -1 -4
COMMENT "Generated by fontforge, http://fontforge.sourceforge.net"
COMMENT "memesbruh03"
STARTPROPERTIES 40
FOUNDRY "FontForge"
FAMILY_NAME "Blocktopia"
WEIGHT_NAME "Medium"
SLANT "R"
SETWIDTH_NAME "Normal"
ADD_STYLE_NAME ""
PIXEL_SIZE 16
POINT_SIZE 150
RESOLUTION_X 75
RESOLUTION_Y 75
SPACING "P"
AVERAGE_WIDTH 77
CHARSET_REGISTRY "ISO10646"
CHARSET_ENCODING "1"
FONTNAME_REGISTRY ""
CHARSET_COLLECTIONS "ISO10646-1"
FONT_NAME "Blocktopia"
FACE_NAME "Blocktopia"
COPYRIGHT "memesbruh03"
FONT_VERSION "001.000"
FONT_ASCENT 12
FONT_DESCENT 4
UNDERLINE_POSITION -2
UNDERLINE_THICKNESS 1
X_HEIGHT 7
CAP_HEIGHT 9
RAW_ASCENT 750
RAW_DESCENT 250
NORM_SPACE 5
RELATIVE_WEIGHT 50
RELATIVE_SETWIDTH 50
SUPERSCRIPT_X 0
SUPERSCRIPT_Y 7
SUPERSCRIPT_SIZE 11
SUBSCRIPT_X 0
SUBSCRIPT_Y 2
SUBSCRIPT_SIZE 11
FIGURE_WIDTH 8
AVG_LOWERCASE_WIDTH 77
AVG_UPPERCASE_WIDTH 82
ENDPROPERTIES
CHARS 196
STARTCHAR space
ENCODING 32
SWIDTH 312 0
DWIDTH 5 0
BBX 1 1 0 0
BITMAP
00
ENDCHAR
STARTCHAR exclam
ENCODING 33
SWIDTH 250 0
DWIDTH 4 0
BBX 3 11 0 0
BITMAP
E0
E0
E0
E0
E0
E0
E0
E0
00
E0
E0
ENDCHAR
STARTCHAR quotedbl
ENCODING 34
SWIDTH 625 0
DWIDTH 10 0
BBX 9 4 0 7
BITMAP
7380
7380
E700
E700
ENDCHAR
STARTCHAR numbersign
ENCODING 35
SWIDTH 500 0
DWIDTH 8 0
BBX 7 10 0 0
BITMAP
6C
6C
FE
FE
6C
6C
FE
FE
6C
6C
ENDCHAR
STARTCHAR dollar
ENCODING 36
SWIDTH 500 0
DWIDTH 8 0
BBX 7 10 0 0
BITMAP
18
7E
FE
E0
FC
7E
0E
FE
FC
18
ENDCHAR
STARTCHAR percent
ENCODING 37
SWIDTH 750 0
DWIDTH 12 0
BBX 11 10 0 0
BITMAP
60E0
B1E0
B3C0
6780
0F00
1E00
3CC0
7960
F160
E0C0
ENDCHAR
STARTCHAR ampersand
ENCODING 38
SWIDTH 500 0
DWIDTH 8 0
BBX 7 10 0 0
BITMAP
18
7E
FE
E0
7E
FE
E0
FE
7E
18
ENDCHAR
STARTCHAR quotesingle
ENCODING 39
SWIDTH 312 0
DWIDTH 5 0
BBX 4 4 0 7
BITMAP
70
70
E0
E0
ENDCHAR
STARTCHAR parenleft
ENCODING 40
SWIDTH 312 0
DWIDTH 5 0
BBX 4 10 0 0
BITMAP
70
F0
E0
E0
E0
E0
E0
E0
F0
70
ENDCHAR
STARTCHAR parenright
ENCODING 41
SWIDTH 312 0
DWIDTH 5 0
BBX 4 10 0 0
BITMAP
E0
F0
70
70
70
70
70
70
F0
E0
ENDCHAR
STARTCHAR asterisk
ENCODING 42
SWIDTH 437 0
DWIDTH 7 0
BBX 6 6 0 4
BITMAP
30
FC
FC
78
FC
CC
ENDCHAR
STARTCHAR plus
ENCODING 43
SWIDTH 500 0
DWIDTH 8 0
BBX 7 8 0 1
BITMAP
38
38
38
FE
FE
38
38
38
ENDCHAR
STARTCHAR comma
ENCODING 44
SWIDTH 312 0
DWIDTH 5 0
BBX 4 4 0 0
BITMAP
70
70
E0
E0
ENDCHAR
STARTCHAR hyphen
ENCODING 45
SWIDTH 500 0
DWIDTH 8 0
BBX 7 2 0 4
BITMAP
FE
FE
ENDCHAR
STARTCHAR period
ENCODING 46
SWIDTH 250 0
DWIDTH 4 0
BBX 3 2 0 0
BITMAP
E0
E0
ENDCHAR
STARTCHAR slash
ENCODING 47
SWIDTH 750 0
DWIDTH 12 0
BBX 11 10 0 0
BITMAP
00E0
01E0
03C0
0780
0F00
1E00
3C00
7800
F000
E000
ENDCHAR
STARTCHAR zero
ENCODING 48
SWIDTH 500 0
DWIDTH 8 0
BBX 7 10 0 0
BITMAP
7C
FE
EE
EE
EE
EE
EE
EE
FE
7C
ENDCHAR
STARTCHAR one
ENCODING 49
SWIDTH 500 0
DWIDTH 8 0
BBX 7 10 0 0
BITMAP
F8
F8
38
38
38
38
38
38
FE
FE
ENDCHAR
STARTCHAR two
ENCODING 50
SWIDTH 500 0
DWIDTH 8 0
BBX 7 10 0 0
BITMAP
FC
FE
0E
0E
7E
FC
E0
E0
FE
FE
ENDCHAR
STARTCHAR three
ENCODING 51
SWIDTH 500 0
DWIDTH 8 0
BBX 7 10 0 0
BITMAP
FC
FE
0E
0E
7E
7E
0E
0E
FE
FC
ENDCHAR
STARTCHAR four
ENCODING 52
SWIDTH 500 0
DWIDTH 8 0
BBX 7 10 0 0
BITMAP
EE
EE
EE
EE
FE
FE
0E
0E
0E
0E
ENDCHAR
STARTCHAR five
ENCODING 53
SWIDTH 500 0
DWIDTH 8 0
BBX 7 10 0 0
BITMAP
FE
FE
E0
E0
FC
FE
0E
0E
FE
FC
ENDCHAR
STARTCHAR six
ENCODING 54
SWIDTH 500 0
DWIDTH 8 0
BBX 7 10 0 0
BITMAP
7E
FE
E0
E0
FC
FE
EE
EE
FE
7C
ENDCHAR
STARTCHAR seven
ENCODING 55
SWIDTH 500 0
DWIDTH 8 0
BBX 7 10 0 0
BITMAP
FE
FE
0E
0E
0E
0E
0E
0E
0E
0E
ENDCHAR
STARTCHAR eight
ENCODING 56
SWIDTH 500 0
DWIDTH 8 0
BBX 7 10 0 0
BITMAP
7C
FE
EE
EE
7C
FE
EE
EE
FE
7C
ENDCHAR
STARTCHAR nine
ENCODING 57
SWIDTH 500 0
DWIDTH 8 0
BBX 7 10 0 0
BITMAP
7C
FE
EE
EE
FE
7E
0E
0E
FE
FC
ENDCHAR
STARTCHAR colon
ENCODING 58
SWIDTH 250 0
DWIDTH 4 0
BBX 3 7 0 2
BITMAP
E0
E0
00
00
00
E0
E0
ENDCHAR
STARTCHAR semicolon
ENCODING 59
SWIDTH 312 0
DWIDTH 5 0
BBX 4 9 0 0
BITMAP
70
70
00
00
00
70
70
E0
E0
ENDCHAR
STARTCHAR less
ENCODING 60
SWIDTH 375 0
DWIDTH 6 0
BBX 5 8 0 1
BITMAP
18
38
70
E0
E0
70
38
18
ENDCHAR
STARTCHAR equal
ENCODING 61
SWIDTH 500 0
DWIDTH 8 0
BBX 7 6 0 2
BITMAP
FE
FE
00
00
FE
FE
ENDCHAR
STARTCHAR greater
ENCODING 62
SWIDTH 375 0
DWIDTH 6 0
BBX 5 8 0 1
BITMAP
C0
E0
70
38
38
70
E0
C0
ENDCHAR
STARTCHAR question
ENCODING 63
SWIDTH 500 0
DWIDTH 8 0
BBX 7 10 0 0
BITMAP
FC
FE
0E
0E
3E
3C
00
00
38
38
ENDCHAR
STARTCHAR at
ENCODING 64
SWIDTH 500 0
DWIDTH 8 0
BBX 7 10 0 0
BITMAP
7C
FE
E6
EE
EE
EE
EC
E0
FC
7C
ENDCHAR
STARTCHAR A
ENCODING 65
SWIDTH 500 0
DWIDTH 8 0
BBX 7 10 0 0
BITMAP
7E
FE
EE
EE
FE
FE
EE
EE
EE
EE
ENDCHAR
STARTCHAR B
ENCODING 66
SWIDTH 500 0
DWIDTH 8 0
BBX 7 10 0 0
BITMAP
FC
FE
EE
EE
FC
FE
EE
EE
FE
FC
ENDCHAR
STARTCHAR C
ENCODING 67
SWIDTH 500 0
DWIDTH 8 0
BBX 7 10 0 0
BITMAP
7E
FE
E0
E0
E0
E0
E0
E0
FE
7E
ENDCHAR
STARTCHAR D
ENCODING 68
SWIDTH 500 0
DWIDTH 8 0
BBX 7 10 0 0
BITMAP
FC
FE
EE
EE
EE
EE
EE
EE
FE
FC
ENDCHAR
STARTCHAR E
ENCODING 69
SWIDTH 500 0
DWIDTH 8 0
BBX 7 10 0 0
BITMAP
FE
FE
E0
E0
FE
FE
E0
E0
FE
FE
ENDCHAR
STARTCHAR F
ENCODING 70
SWIDTH 500 0
DWIDTH 8 0
BBX 7 10 0 0
BITMAP
FE
FE
E0
E0
FE
FE
E0
E0
E0
E0
ENDCHAR
STARTCHAR G
ENCODING 71
SWIDTH 500 0
DWIDTH 8 0
BBX 7 10 0 0
BITMAP
7E
FE
E0
E0
EE
EE
EE
EE
FE
7C
ENDCHAR
STARTCHAR H
ENCODING 72
SWIDTH 500 0
DWIDTH 8 0
BBX 7 10 0 0
BITMAP
EE
EE
EE
EE
FE
FE
EE
EE
EE
EE
ENDCHAR
STARTCHAR I
ENCODING 73
SWIDTH 500 0
DWIDTH 8 0
BBX 7 10 0 0
BITMAP
FE
FE
38
38
38
38
38
38
FE
FE
ENDCHAR
STARTCHAR J
ENCODING 74
SWIDTH 500 0
DWIDTH 8 0
BBX 7 10 0 0
BITMAP
0E
0E
0E
0E
0E
0E
0E
0E
FE
FC
ENDCHAR
STARTCHAR K
ENCODING 75
SWIDTH 500 0
DWIDTH 8 0
BBX 7 10 0 0
BITMAP
EE
EE
EE
EE
FC
FE
EE
EE
EE
EE
ENDCHAR
STARTCHAR L
ENCODING 76
SWIDTH 500 0
DWIDTH 8 0
BBX 7 10 0 0
BITMAP
E0
E0
E0
E0
E0
E0
E0
E0
FE
FE
ENDCHAR
STARTCHAR M
ENCODING 77
SWIDTH 750 0
DWIDTH 12 0
BBX 11 10 0 0
BITMAP
FFC0
FFE0
EEE0
EEE0
EEE0
EEE0
EEE0
EEE0
EEE0
EEE0
ENDCHAR
STARTCHAR N
ENCODING 78
SWIDTH 500 0
DWIDTH 8 0
BBX 7 10 0 0
BITMAP
FC
FE
EE
EE
EE
EE
EE
EE
EE
EE
ENDCHAR
STARTCHAR O
ENCODING 79
SWIDTH 500 0
DWIDTH 8 0
BBX 7 10 0 0
BITMAP
7C
FE
EE
EE
EE
EE
EE
EE
FE
7C
ENDCHAR
STARTCHAR P
ENCODING 80
SWIDTH 500 0
DWIDTH 8 0
BBX 7 10 0 0
BITMAP
FC
FE
EE
EE
FE
FC
E0
E0
E0
E0
ENDCHAR
STARTCHAR Q
ENCODING 81
SWIDTH 500 0
DWIDTH 8 0
BBX 7 10 0 0
BITMAP
7C
FE
EE
EE
EE
EE
EE
FE
7E
06
ENDCHAR
STARTCHAR R
ENCODING 82
SWIDTH 500 0
DWIDTH 8 0
BBX 7 10 0 0
BITMAP
FC
FE
EE
EE
FC
FE
EE
EE
EE
EE
ENDCHAR
STARTCHAR S
ENCODING 83
SWIDTH 500 0
DWIDTH 8 0
BBX 7 10 0 0
BITMAP
7E
FE
E0
E0
FC
7E
0E
0E
FE
FC
ENDCHAR
STARTCHAR T
ENCODING 84
SWIDTH 500 0
DWIDTH 8 0
BBX 7 10 0 0
BITMAP
FE
FE
38
38
38
38
38
38
38
38
ENDCHAR
STARTCHAR U
ENCODING 85
SWIDTH 500 0
DWIDTH 8 0
BBX 7 10 0 0
BITMAP
EE
EE
EE
EE
EE
EE
EE
EE
FE
7C
ENDCHAR
STARTCHAR V
ENCODING 86
SWIDTH 500 0
DWIDTH 8 0
BBX 7 10 0 0
BITMAP
EE
EE
EE
EE
EE
EE
EE
EE
FE
7E
ENDCHAR
STARTCHAR W
ENCODING 87
SWIDTH 750 0
DWIDTH 12 0
BBX 11 10 0 0
BITMAP
EEE0
EEE0
EEE0
EEE0
EEE0
EEE0
EEE0
EEE0
FFE0
7FE0
ENDCHAR
STARTCHAR X
ENCODING 88
SWIDTH 500 0
DWIDTH 8 0
BBX 7 10 0 0
BITMAP
EE
EE
EE
EE
7C
FE
EE
EE
EE
EE
ENDCHAR
STARTCHAR Y
ENCODING 89
SWIDTH 500 0
DWIDTH 8 0
BBX 7 10 0 0
BITMAP
EE
EE
EE
EE
FE
7C
38
38
38
38
ENDCHAR
STARTCHAR Z
ENCODING 90
SWIDTH 500 0
DWIDTH 8 0
BBX 7 10 0 0
BITMAP
FE
FE
0E
0E
7E
FC
E0
E0
FE
FE
ENDCHAR
STARTCHAR bracketleft
ENCODING 91
SWIDTH 312 0
DWIDTH 5 0
BBX 4 10 0 0
BITMAP
F0
F0
E0
E0
E0
E0
E0
E0
F0
F0
ENDCHAR
STARTCHAR backslash
ENCODING 92
SWIDTH 750 0
DWIDTH 12 0
BBX 11 10 0 0
BITMAP
E000
F000
7800
3C00
1E00
0F00
0780
03C0
01E0
00E0
ENDCHAR
STARTCHAR bracketright
ENCODING 93
SWIDTH 312 0
DWIDTH 5 0
BBX 4 10 0 0
BITMAP
F0
F0
70
70
70
70
70
70
F0
F0
ENDCHAR
STARTCHAR asciicircum
ENCODING 94
SWIDTH 437 0
DWIDTH 7 0
BBX 6 4 0 6
BITMAP
30
78
FC
CC
ENDCHAR
STARTCHAR underscore
ENCODING 95
SWIDTH 687 0
DWIDTH 11 0
BBX 10 2 0 -2
BITMAP
FFC0
FFC0
ENDCHAR
STARTCHAR grave
ENCODING 96
SWIDTH 312 0
DWIDTH 5 0
BBX 4 4 0 6
BITMAP
C0
E0
70
30
ENDCHAR
STARTCHAR a
ENCODING 97
SWIDTH 500 0
DWIDTH 8 0
BBX 7 8 0 0
BITMAP
7C
7E
0E
7E
FE
EE
FE
7E
ENDCHAR
STARTCHAR b
ENCODING 98
SWIDTH 500 0
DWIDTH 8 0
BBX 7 10 0 0
BITMAP
E0
E0
FC
FE
EE
EE
EE
EE
FE
FC
ENDCHAR
STARTCHAR c
ENCODING 99
SWIDTH 500 0
DWIDTH 8 0
BBX 7 8 0 0
BITMAP
7E
FE
E0
E0
E0
E0
FE
7E
ENDCHAR
STARTCHAR d
ENCODING 100
SWIDTH 500 0
DWIDTH 8 0
BBX 7 10 0 0
BITMAP
0E
0E
7E
FE
EE
EE
EE
EE
FE
7E
ENDCHAR
STARTCHAR e
ENCODING 101
SWIDTH 500 0
DWIDTH 8 0
BBX 7 8 0 0
BITMAP
7C
FE
EE
FE
FE
E0
FC
7C
ENDCHAR
STARTCHAR f
ENCODING 102
SWIDTH 500 0
DWIDTH 8 0
BBX 7 10 0 0
BITMAP
1E
3E
38
38
FE
FE
38
38
38
38
ENDCHAR
STARTCHAR g
ENCODING 103
SWIDTH 500 0
DWIDTH 8 0
BBX 7 12 0 -4
BITMAP
7C
FE
EE
EE
EE
EE
FE
7E
0E
0E
7E
7C
ENDCHAR
STARTCHAR h
ENCODING 104
SWIDTH 500 0
DWIDTH 8 0
BBX 7 10 0 0
BITMAP
E0
E0
FC
FE
EE
EE
EE
EE
EE
EE
ENDCHAR
STARTCHAR i
ENCODING 105
SWIDTH 250 0
DWIDTH 4 0
BBX 3 11 0 0
BITMAP
E0
E0
00
E0
E0
E0
E0
E0
E0
E0
E0
ENDCHAR
STARTCHAR j
ENCODING 106
SWIDTH 250 0
DWIDTH 4 0
BBX 4 15 -1 -4
BITMAP
70
70
00
70
70
70
70
70
70
70
70
70
70
F0
E0
ENDCHAR
STARTCHAR k
ENCODING 107
SWIDTH 500 0
DWIDTH 8 0
BBX 7 10 0 0
BITMAP
E0
E0
EE
EE
FC
FE
EE
EE
EE
EE
ENDCHAR
STARTCHAR l
ENCODING 108
SWIDTH 312 0
DWIDTH 5 0
BBX 4 10 0 0
BITMAP
E0
E0
E0
E0
E0
E0
E0
E0
F0
70
ENDCHAR
STARTCHAR m
ENCODING 109
SWIDTH 750 0
DWIDTH 12 0
BBX 11 8 0 0
BITMAP
FFC0
FFE0
EEE0
EEE0
EEE0
EEE0
EEE0
EEE0
ENDCHAR
STARTCHAR n
ENCODING 110
SWIDTH 500 0
DWIDTH 8 0
BBX 7 8 0 0
BITMAP
FC
FE
EE
EE
EE
EE
EE
EE
ENDCHAR
STARTCHAR o
ENCODING 111
SWIDTH 500 0
DWIDTH 8 0
BBX 7 8 0 0
BITMAP
7C
FE
EE
EE
EE
EE
FE
7C
ENDCHAR
STARTCHAR p
ENCODING 112
SWIDTH 500 0
DWIDTH 8 0
BBX 7 12 0 -4
BITMAP
FC
FE
EE
EE
EE
EE
FE
FC
E0
E0
E0
E0
ENDCHAR
STARTCHAR q
ENCODING 113
SWIDTH 500 0
DWIDTH 8 0
BBX 7 12 0 -4
BITMAP
7E
FE
EE
EE
EE
EE
FE
7E
0E
0E
0E
0E
ENDCHAR
STARTCHAR r
ENCODING 114
SWIDTH 500 0
DWIDTH 8 0
BBX 7 8 0 0
BITMAP
FC
FE
EE
E0
E0
E0
E0
E0
ENDCHAR
STARTCHAR s
ENCODING 115
SWIDTH 500 0
DWIDTH 8 0
BBX 7 8 0 0
BITMAP
7E
FE
E0
FC
7E
0E
FE
FC
ENDCHAR
STARTCHAR t
ENCODING 116
SWIDTH 500 0
DWIDTH 8 0
BBX 7 10 0 0
BITMAP
38
38
38
38
FE
FE
38
38
3E
1E
ENDCHAR
STARTCHAR u
ENCODING 117
SWIDTH 500 0
DWIDTH 8 0
BBX 7 8 0 0
BITMAP
EE
EE
EE
EE
EE
EE
FE
7C
ENDCHAR
STARTCHAR v
ENCODING 118
SWIDTH 500 0
DWIDTH 8 0
BBX 7 8 0 0
BITMAP
EE
EE
EE
EE
EE
EE
FE
7E
ENDCHAR
STARTCHAR w
ENCODING 119
SWIDTH 750 0
DWIDTH 12 0
BBX 11 8 0 0
BITMAP
EEE0
EEE0
EEE0
EEE0
EEE0
EEE0
FFE0
7FE0
ENDCHAR
STARTCHAR x
ENCODING 120
SWIDTH 500 0
DWIDTH 8 0
BBX 7 8 0 0
BITMAP
EE
EE
EE
7C
FE
EE
EE
EE
ENDCHAR
STARTCHAR y
ENCODING 121
SWIDTH 500 0
DWIDTH 8 0
BBX 7 12 0 -4
BITMAP
EE
EE
EE
EE
EE
EE
FE
7E
0E
0E
7E
7C
ENDCHAR
STARTCHAR z
ENCODING 122
SWIDTH 500 0
DWIDTH 8 0
BBX 7 8 0 0
BITMAP
FE
FE
0E
7E
FC
E0
FE
FE
ENDCHAR
STARTCHAR braceleft
ENCODING 123
SWIDTH 375 0
DWIDTH 6 0
BBX 5 10 0 0
BITMAP
38
78
70
70
E0
E0
70
70
78
38
ENDCHAR
STARTCHAR bar
ENCODING 124
SWIDTH 375 0
DWIDTH 6 0
BBX 5 10 0 0
BITMAP
F8
70
70
70
70
70
70
70
70
F8
ENDCHAR
STARTCHAR braceright
ENCODING 125
SWIDTH 375 0
DWIDTH 6 0
BBX 5 10 0 0
BITMAP
E0
E0
70
70
38
38
70
70
F0
E0
ENDCHAR
STARTCHAR asciitilde
ENCODING 126
SWIDTH 562 0
DWIDTH 9 0
BBX 8 4 0 3
BITMAP
70
FB
DF
0E
ENDCHAR
STARTCHAR uni00A0
ENCODING 160
SWIDTH 312 0
DWIDTH 5 0
BBX 1 1 0 0
BITMAP
00
ENDCHAR
STARTCHAR exclamdown
ENCODING 161
SWIDTH 250 0
DWIDTH 4 0
BBX 3 11 0 -4
BITMAP
E0
E0
00
E0
E0
E0
E0
E0
E0
E0
E0
ENDCHAR
STARTCHAR cent
ENCODING 162
SWIDTH 500 0
DWIDTH 8 0
BBX 7 10 0 0
BITMAP
18
7E
FE
E0
E0
E0
E0
FE
7E
18
ENDCHAR
STARTCHAR sterling
ENCODING 163
SWIDTH 500 0
DWIDTH 8 0
BBX 7 10 0 0
BITMAP
3E
7E
70
70
FC
FC
70
70
FE
FE
ENDCHAR
STARTCHAR currency
ENCODING 164
SWIDTH 500 0
DWIDTH 8 0
BBX 7 7 0 2
BITMAP
C6
FE
7C
6C
7C
FE
C6
ENDCHAR
STARTCHAR yen
ENCODING 165
SWIDTH 500 0
DWIDTH 8 0
BBX 7 10 0 0
BITMAP
EE
EE
EE
EE
FE
7C
38
FE
FE
38
ENDCHAR
STARTCHAR brokenbar
ENCODING 166
SWIDTH 375 0
DWIDTH 6 0
BBX 5 10 0 0
BITMAP
F8
70
70
70
00
00
70
70
70
F8
ENDCHAR
STARTCHAR section
ENCODING 167
SWIDTH 500 0
DWIDTH 8 0
BBX 7 10 0 0
BITMAP
7E
FE
E0
F8
EC
6E
3E
0E
FE
FC
ENDCHAR
STARTCHAR dieresis
ENCODING 168
SWIDTH 500 0
DWIDTH 8 0
BBX 7 2 0 9
BITMAP
EE
EE
ENDCHAR
STARTCHAR copyright
ENCODING 169
SWIDTH 687 0
DWIDTH 11 0
BBX 10 10 0 0
BITMAP
1E00
7F80
6180
CCC0
CFC0
CFC0
CCC0
6180
7F80
1E00
ENDCHAR
STARTCHAR ordfeminine
ENCODING 170
SWIDTH 250 0
DWIDTH 4 0
BBX 3 7 0 3
BITMAP
C0
20
60
A0
E0
00
E0
ENDCHAR
STARTCHAR guillemotleft
ENCODING 171
SWIDTH 687 0
DWIDTH 11 0
BBX 10 8 0 1
BITMAP
18C0
39C0
7380
E700
E700
7380
39C0
18C0
ENDCHAR
STARTCHAR logicalnot
ENCODING 172
SWIDTH 500 0
DWIDTH 8 0
BBX 7 6 0 2
BITMAP
FE
FE
0E
0E
0E
0E
ENDCHAR
STARTCHAR registered
ENCODING 174
SWIDTH 687 0
DWIDTH 11 0
BBX 10 10 0 0
BITMAP
1E00
7F80
4180
CCC0
CCC0
C1C0
CCC0
4C80
7F80
1E00
ENDCHAR
STARTCHAR macron
ENCODING 175
SWIDTH 687 0
DWIDTH 11 0
BBX 10 2 0 10
BITMAP
FFC0
FFC0
ENDCHAR
STARTCHAR degree
ENCODING 176
SWIDTH 375 0
DWIDTH 6 0
BBX 5 5 0 5
BITMAP
70
F8
D8
F8
70
ENDCHAR
STARTCHAR plusminus
ENCODING 177
SWIDTH 500 0
DWIDTH 8 0
BBX 7 10 0 0
BITMAP
38
38
FE
FE
38
38
00
00
FE
FE
ENDCHAR
STARTCHAR uni00B2
ENCODING 178
SWIDTH 312 0
DWIDTH 5 0
BBX 4 8 0 2
BITMAP
E0
F0
30
70
E0
C0
F0
F0
ENDCHAR
STARTCHAR uni00B3
ENCODING 179
SWIDTH 312 0
DWIDTH 5 0
BBX 4 8 0 2
BITMAP
E0
F0
30
60
70
30
F0
E0
ENDCHAR
STARTCHAR acute
ENCODING 180
SWIDTH 312 0
DWIDTH 5 0
BBX 4 4 0 6
BITMAP
30
70
E0
C0
ENDCHAR
STARTCHAR uni00B5
ENCODING 181
SWIDTH 500 0
DWIDTH 8 0
BBX 7 12 0 -4
BITMAP
EE
EE
EE
EE
EE
EE
FE
FE
E0
E0
E0
E0
ENDCHAR
STARTCHAR paragraph
ENCODING 182
SWIDTH 500 0
DWIDTH 8 0
BBX 7 10 0 0
BITMAP
7E
FE
F6
F6
F6
76
36
36
36
36
ENDCHAR
STARTCHAR periodcentered
ENCODING 183
SWIDTH 312 0
DWIDTH 5 0
BBX 4 4 0 3
BITMAP
60
F0
F0
60
ENDCHAR
STARTCHAR cedilla
ENCODING 184
SWIDTH 312 0
DWIDTH 5 0
BBX 4 3 0 -3
BITMAP
30
F0
E0
ENDCHAR
STARTCHAR uni00B9
ENCODING 185
SWIDTH 312 0
DWIDTH 5 0
BBX 4 8 0 2
BITMAP
60
E0
E0
60
60
60
F0
F0
ENDCHAR
STARTCHAR ordmasculine
ENCODING 186
SWIDTH 250 0
DWIDTH 4 0
BBX 3 7 0 3
BITMAP
40
A0
A0
A0
40
00
E0
ENDCHAR
STARTCHAR guillemotright
ENCODING 187
SWIDTH 687 0
DWIDTH 11 0
BBX 10 8 0 1
BITMAP
C600
E700
7380
39C0
39C0
7380
E700
C600
ENDCHAR
STARTCHAR onequarter
ENCODING 188
SWIDTH 750 0
DWIDTH 12 0
BBX 11 10 0 0
BITMAP
60E0
E1E0
63C0
F780
0F00
1E00
3D20
79E0
F1E0
E020
ENDCHAR
STARTCHAR onehalf
ENCODING 189
SWIDTH 750 0
DWIDTH 12 0
BBX 11 10 0 0
BITMAP
60E0
E1E0
63C0
F780
0F00
1E00
3DC0
7860
F080
E1E0
ENDCHAR
STARTCHAR threequarters
ENCODING 190
SWIDTH 750 0
DWIDTH 12 0
BBX 11 10 0 0
BITMAP
E0E0
71E0
13C0
E780
0F00
1E00
3D20
79E0
F1E0
E020
ENDCHAR
STARTCHAR questiondown
ENCODING 191
SWIDTH 500 0
DWIDTH 8 0
BBX 7 10 0 -4
BITMAP
38
38
00
00
78
F8
E0
E0
FE
7E
ENDCHAR
STARTCHAR Agrave
ENCODING 192
SWIDTH 500 0
DWIDTH 8 0
BBX 7 12 0 0
BITMAP
30
38
18
00
7E
FE
EE
EE
FE
FE
EE
EE
ENDCHAR
STARTCHAR Aacute
ENCODING 193
SWIDTH 500 0
DWIDTH 8 0
BBX 7 12 0 0
BITMAP
18
38
30
00
7E
FE
EE
EE
FE
FE
EE
EE
ENDCHAR
STARTCHAR Acircumflex
ENCODING 194
SWIDTH 500 0
DWIDTH 8 0
BBX 7 12 0 0
BITMAP
18
3C
66
00
7E
FE
EE
EE
FE
FE
EE
EE
ENDCHAR
STARTCHAR Atilde
ENCODING 195
SWIDTH 500 0
DWIDTH 8 0
BBX 7 12 0 0
BITMAP
76
FE
DC
00
7E
FE
EE
EE
FE
FE
EE
EE
ENDCHAR
STARTCHAR Adieresis
ENCODING 196
SWIDTH 500 0
DWIDTH 8 0
BBX 7 11 0 0
BITMAP
EE
EE
00
7E
FE
EE
EE
FE
FE
EE
EE
ENDCHAR
STARTCHAR Aring
ENCODING 197
SWIDTH 500 0
DWIDTH 8 0
BBX 7 11 0 0
BITMAP
38
7C
6C
7E
FE
EE
EE
FE
FE
EE
EE
ENDCHAR
STARTCHAR AE
ENCODING 198
SWIDTH 750 0
DWIDTH 12 0
BBX 11 10 0 0
BITMAP
7FE0
FFE0
EE00
EE00
FFE0
FFE0
EE00
EE00
EFE0
EFE0
ENDCHAR
STARTCHAR Ccedilla
ENCODING 199
SWIDTH 500 0
DWIDTH 8 0
BBX 7 13 0 -3
BITMAP
7E
FE
E0
E0
E0
E0
E0
E0
FE
7E
18
78
70
ENDCHAR
STARTCHAR Egrave
ENCODING 200
SWIDTH 500 0
DWIDTH 8 0
BBX 7 12 0 0
BITMAP
30
38
18
00
FE
FE
E0
FE
FE
E0
FE
FE
ENDCHAR
STARTCHAR Eacute
ENCODING 201
SWIDTH 500 0
DWIDTH 8 0
BBX 7 12 0 0
BITMAP
18
38
30
00
FE
FE
E0
FE
FE
E0
FE
FE
ENDCHAR
STARTCHAR Ecircumflex
ENCODING 202
SWIDTH 500 0
DWIDTH 8 0
BBX 7 12 0 0
BITMAP
18
3C
66
00
FE
FE
E0
FE
FE
E0
FE
FE
ENDCHAR
STARTCHAR Edieresis
ENCODING 203
SWIDTH 500 0
DWIDTH 8 0
BBX 7 11 0 0
BITMAP
EE
EE
00
FE
FE
E0
FE
FE
E0
FE
FE
ENDCHAR
STARTCHAR Igrave
ENCODING 204
SWIDTH 500 0
DWIDTH 8 0
BBX 7 12 0 0
BITMAP
30
38
18
00
FE
FE
38
38
38
38
FE
FE
ENDCHAR
STARTCHAR Iacute
ENCODING 205
SWIDTH 500 0
DWIDTH 8 0
BBX 7 12 0 0
BITMAP
18
38
30
00
FE
FE
38
38
38
38
FE
FE
ENDCHAR
STARTCHAR Icircumflex
ENCODING 206
SWIDTH 500 0
DWIDTH 8 0
BBX 7 12 0 0
BITMAP
18
3C
66
00
FE
FE
38
38
38
38
FE
FE
ENDCHAR
STARTCHAR Idieresis
ENCODING 207
SWIDTH 500 0
DWIDTH 8 0
BBX 7 11 0 0
BITMAP
EE
EE
00
FE
FE
38
38
38
38
FE
FE
ENDCHAR
STARTCHAR Eth
ENCODING 208
SWIDTH 500 0
DWIDTH 8 0
BBX 8 10 -1 0
BITMAP
7E
7F
77
77
F7
F7
77
77
7F
7E
ENDCHAR
STARTCHAR Ntilde
ENCODING 209
SWIDTH 500 0
DWIDTH 8 0
BBX 7 12 0 0
BITMAP
76
FE
DC
00
FC
FE
EE
EE
EE
EE
EE
EE
ENDCHAR
STARTCHAR Ograve
ENCODING 210
SWIDTH 500 0
DWIDTH 8 0
BBX 7 12 0 0
BITMAP
30
38
18
00
7C
FE
EE
EE
EE
EE
FE
7C
ENDCHAR
STARTCHAR Oacute
ENCODING 211
SWIDTH 500 0
DWIDTH 8 0
BBX 7 12 0 0
BITMAP
18
38
30
00
7C
FE
EE
EE
EE
EE
FE
7C
ENDCHAR
STARTCHAR Ocircumflex
ENCODING 212
SWIDTH 500 0
DWIDTH 8 0
BBX 7 12 0 0
BITMAP
18
3C
66
00
7C
FE
EE
EE
EE
EE
FE
7C
ENDCHAR
STARTCHAR Otilde
ENCODING 213
SWIDTH 500 0
DWIDTH 8 0
BBX 7 12 0 0
BITMAP
76
FE
DC
00
7C
FE
EE
EE
EE
EE
FE
7C
ENDCHAR
STARTCHAR Odieresis
ENCODING 214
SWIDTH 500 0
DWIDTH 8 0
BBX 7 11 0 0
BITMAP
EE
EE
00
7C
FE
EE
EE
EE
EE
FE
7C
ENDCHAR
STARTCHAR multiply
ENCODING 215
SWIDTH 437 0
DWIDTH 7 0
BBX 6 6 0 2
BITMAP
CC
FC
78
78
FC
CC
ENDCHAR
STARTCHAR Oslash
ENCODING 216
SWIDTH 500 0
DWIDTH 8 0
BBX 7 10 0 0
BITMAP
7E
FE
EE
EE
FE
FE
EE
EE
FE
FC
ENDCHAR
STARTCHAR Ugrave
ENCODING 217
SWIDTH 500 0
DWIDTH 8 0
BBX 7 12 0 0
BITMAP
30
38
18
00
EE
EE
EE
EE
EE
EE
FE
7C
ENDCHAR
STARTCHAR Uacute
ENCODING 218
SWIDTH 500 0
DWIDTH 8 0
BBX 7 12 0 0
BITMAP
18
38
30
00
EE
EE
EE
EE
EE
EE
FE
7C
ENDCHAR
STARTCHAR Ucircumflex
ENCODING 219
SWIDTH 500 0
DWIDTH 8 0
BBX 7 12 0 0
BITMAP
18
3C
66
00
EE
EE
EE
EE
EE
EE
FE
7C
ENDCHAR
STARTCHAR Udieresis
ENCODING 220
SWIDTH 500 0
DWIDTH 8 0
BBX 7 11 0 0
BITMAP
EE
EE
00
EE
EE
EE
EE
EE
EE
FE
7C
ENDCHAR
STARTCHAR Yacute
ENCODING 221
SWIDTH 500 0
DWIDTH 8 0
BBX 7 12 0 0
BITMAP
18
38
30
00
EE
EE
EE
FE
7C
38
38
38
ENDCHAR
STARTCHAR Thorn
ENCODING 222
SWIDTH 500 0
DWIDTH 8 0
BBX 7 10 0 0
BITMAP
E0
E0
FC
FE
EE
EE
FE
FC
E0
E0
ENDCHAR
STARTCHAR germandbls
ENCODING 223
SWIDTH 500 0
DWIDTH 8 0
BBX 7 10 0 0
BITMAP
7C
FE
EE
EE
FC
FE
EE
EE
FE
FC
ENDCHAR
STARTCHAR agrave
ENCODING 224
SWIDTH 500 0
DWIDTH 8 0
BBX 7 12 0 0
BITMAP
30
38
18
00
7C
7E
0E
7E
FE
EE
FE
7E
ENDCHAR
STARTCHAR aacute
ENCODING 225
SWIDTH 500 0
DWIDTH 8 0
BBX 7 12 0 0
BITMAP
18
38
30
00
7C
7E
0E
7E
FE
EE
FE
7E
ENDCHAR
STARTCHAR acircumflex
ENCODING 226
SWIDTH 500 0
DWIDTH 8 0
BBX 7 12 0 0
BITMAP
18
3C
66
00
7C
7E
0E
7E
FE
EE
FE
7E
ENDCHAR
STARTCHAR atilde
ENCODING 227
SWIDTH 500 0
DWIDTH 8 0
BBX 7 12 0 0
BITMAP
76
FE
DC
00
7C
7E
0E
7E
FE
EE
FE
7E
ENDCHAR
STARTCHAR adieresis
ENCODING 228
SWIDTH 500 0
DWIDTH 8 0
BBX 7 11 0 0
BITMAP
EE
EE
00
7C
7E
0E
7E
FE
EE
FE
7E
ENDCHAR
STARTCHAR aring
ENCODING 229
SWIDTH 500 0
DWIDTH 8 0
BBX 7 11 0 0
BITMAP
38
7C
6C
7C
7E
0E
7E
FE
EE
FE
7E
ENDCHAR
STARTCHAR ae
ENCODING 230
SWIDTH 750 0
DWIDTH 12 0
BBX 11 8 0 0
BITMAP
7FC0
7FE0
0EE0
7FE0
FFE0
EE00
FFC0
7FC0
ENDCHAR
STARTCHAR ccedilla
ENCODING 231
SWIDTH 500 0
DWIDTH 8 0
BBX 7 11 0 -3
BITMAP
7E
FE
E0
E0
E0
E0
FE
7E
18
78
70
ENDCHAR
STARTCHAR egrave
ENCODING 232
SWIDTH 500 0
DWIDTH 8 0
BBX 7 12 0 0
BITMAP
30
38
18
00
7C
FE
EE
FE
FE
E0
FC
7C
ENDCHAR
STARTCHAR eacute
ENCODING 233
SWIDTH 500 0
DWIDTH 8 0
BBX 7 12 0 0
BITMAP
18
38
30
00
7C
FE
EE
FE
FE
E0
FC
7C
ENDCHAR
STARTCHAR ecircumflex
ENCODING 234
SWIDTH 500 0
DWIDTH 8 0
BBX 7 12 0 0
BITMAP
18
3C
66
00
7C
FE
EE
FE
FE
E0
FC
7C
ENDCHAR
STARTCHAR edieresis
ENCODING 235
SWIDTH 500 0
DWIDTH 8 0
BBX 7 11 0 0
BITMAP
EE
EE
00
7C
FE
EE
FE
FE
E0
FC
7C
ENDCHAR
STARTCHAR igrave
ENCODING 236
SWIDTH 250 0
DWIDTH 4 0
BBX 3 12 0 0
BITMAP
C0
E0
60
00
E0
E0
E0
E0
E0
E0
E0
E0
ENDCHAR
STARTCHAR iacute
ENCODING 237
SWIDTH 250 0
DWIDTH 4 0
BBX 3 12 0 0
BITMAP
60
E0
C0
00
E0
E0
E0
E0
E0
E0
E0
E0
ENDCHAR
STARTCHAR icircumflex
ENCODING 238
SWIDTH 375 0
DWIDTH 6 0
BBX 6 12 -1 0
BITMAP
30
78
CC
00
38
38
38
38
38
38
38
38
ENDCHAR
STARTCHAR idieresis
ENCODING 239
SWIDTH 437 0
DWIDTH 7 0
BBX 7 11 -1 0
BITMAP
EE
EE
00
38
38
38
38
38
38
38
38
ENDCHAR
STARTCHAR eth
ENCODING 240
SWIDTH 500 0
DWIDTH 8 0
BBX 7 12 0 0
BITMAP
30
7C
7E
0E
7E
FE
EE
EE
EE
EE
FE
7E
ENDCHAR
STARTCHAR ntilde
ENCODING 241
SWIDTH 500 0
DWIDTH 8 0
BBX 7 12 0 0
BITMAP
76
FE
DC
00
FC
FE
EE
EE
EE
EE
EE
EE
ENDCHAR
STARTCHAR ograve
ENCODING 242
SWIDTH 500 0
DWIDTH 8 0
BBX 7 12 0 0
BITMAP
30
38
18
00
7C
FE
EE
EE
EE
EE
FE
7C
ENDCHAR
STARTCHAR oacute
ENCODING 243
SWIDTH 500 0
DWIDTH 8 0
BBX 7 12 0 0
BITMAP
18
38
30
00
7C
FE
EE
EE
EE
EE
FE
7C
ENDCHAR
STARTCHAR ocircumflex
ENCODING 244
SWIDTH 500 0
DWIDTH 8 0
BBX 7 12 0 0
BITMAP
18
3C
66
00
7C
FE
EE
EE
EE
EE
FE
7C
ENDCHAR
STARTCHAR otilde
ENCODING 245
SWIDTH 500 0
DWIDTH 8 0
BBX 7 12 0 0
BITMAP
76
FE
DC
00
7C
FE
EE
EE
EE
EE
FE
7C
ENDCHAR
STARTCHAR odieresis
ENCODING 246
SWIDTH 500 0
DWIDTH 8 0
BBX 7 11 0 0
BITMAP
EE
EE
00
7C
FE
EE
EE
EE
EE
FE
7C
ENDCHAR
STARTCHAR divide
ENCODING 247
SWIDTH 437 0
DWIDTH 7 0
BBX 6 8 0 1
BITMAP
30
30
00
FC
FC
00
30
30
ENDCHAR
STARTCHAR oslash
ENCODING 248
SWIDTH 500 0
DWIDTH 8 0
BBX 7 8 0 0
BITMAP
7E
FE
EE
FE
FE
EE
FE
FC
ENDCHAR
STARTCHAR ugrave
ENCODING 249
SWIDTH 500 0
DWIDTH 8 0
BBX 7 12 0 0
BITMAP
30
38
18
00
EE
EE
EE
EE
EE
EE
FE
7C
ENDCHAR
STARTCHAR uacute
ENCODING 250
SWIDTH 500 0
DWIDTH 8 0
BBX 7 12 0 0
BITMAP
18
38
30
00
EE
EE
EE
EE
EE
EE
FE
7C
ENDCHAR
STARTCHAR ucircumflex
ENCODING 251
SWIDTH 500 0
DWIDTH 8 0
BBX 7 12 0 0
BITMAP
18
3C
66
00
EE
EE
EE
EE
EE
EE
FE
7C
ENDCHAR
STARTCHAR udieresis
ENCODING 252
SWIDTH 500 0
DWIDTH 8 0
BBX 7 11 0 0
BITMAP
EE
EE
00
EE
EE
EE
EE
EE
EE
FE
7C
ENDCHAR
STARTCHAR yacute
ENCODING 253
SWIDTH 500 0
DWIDTH 8 0
BBX 7 16 0 -4
BITMAP
18
38
30
00
EE
EE
EE
EE
EE
EE
FE
7E
0E
0E
7E
7C
ENDCHAR
STARTCHAR thorn
ENCODING 254
SWIDTH 500 0
DWIDTH 8 0
BBX 7 10 0 0
BITMAP
E0
EC
FE
FE
EE
EE
FE
FE
EC
E0
ENDCHAR
STARTCHAR ydieresis
ENCODING 255
SWIDTH 500 0
DWIDTH 8 0
BBX 7 15 0 -4
BITMAP
EE
EE
00
EE
EE
EE
EE
EE
EE
FE
7E
0E
0E
7E
7C
ENDCHAR
STARTCHAR Ydieresis
ENCODING 376
SWIDTH 500 0
DWIDTH 8 0
BBX 7 11 0 0
BITMAP
EE
EE
00
EE
EE
EE
FE
7C
38
38
38
ENDCHAR
STARTCHAR uni3000
ENCODING 12288
SWIDTH 1000 0
DWIDTH 16 0
BBX 1 1 0 0
BITMAP
00
ENDCHAR
STARTCHAR uniE0FF
ENCODING 57599
SWIDTH 875 0
DWIDTH 14 0
BBX 13 11 0 0
BITMAP
C6F0
EED8
FEF0
D6D8
C6F0
0000
39E0
6C30
6CE0
6C30
39E0
ENDCHAR
STARTCHAR .notdef
ENCODING -1
SWIDTH 365 0
DWIDTH 6 0
BBX 5 11 1 0
BITMAP
F8
88
88
88
88
88
88
88
88
88
F8
ENDCHAR
STARTCHAR .null
ENCODING -1
SWIDTH 0 0
DWIDTH 0 0
BBX 1 1 0 0
BITMAP
00
ENDCHAR
STARTCHAR nonmarkingreturn
ENCODING -1
SWIDTH 333 0
DWIDTH 5 0
BBX 1 1 0 0
BITMAP
00
ENDCHAR
ENDFONT
